# xmcd
#
# Track frame offsets:
# 150
# 21829
# 37150
# 50593
# 65358
# 81531
# 97866
# 116015
# 131821
# 148856
# 168248
# 184768
# 197391
# 212297
# 229776
# 246633
# 263187
#
# Disc length: 3704 seconds
#
#
# Revision: 0
# Processed by: cddbd v1.5.2PL0 Copyright (c) Steve Scherf et al.
# Submitted via: FreeRIP 2.945 
#
DISCID=f80e7611
DTITLE=Jonny Hill - Star Edition
DYEAR=0007
DGENRE=Country
TTITLE0=Ruf Teddybär 1-4
TTITLE1=Bis ans Ende der Welt
TTITLE2=Ich hab noch viele Träume
TTITLE3=Steh auf und lieb dein Leben
TTITLE4=Zorn und Zärtlichkeit
TTITLE5=Nimm mich fest in deine Arme
TTITLE6=Wölfe und Schafe
TTITLE7=Jambalaya
TTITLE8=Das hab ich beim Frisör gehört
TTITLE9=50,000 Kilometer
TTITLE10=Wieviel wert sind 20 Jahre
TTITLE11=Mein Traum
TTITLE12=Lass mich sein wie ich bin
TTITLE13=Deine Augen
TTITLE14=Rosen für Mama
TTITLE15=Tierra Libre
TTITLE16=Darling- Duett mit Linda Feller
EXTD=
EXTT0=
EXTT1=
EXTT2=
EXTT3=
EXTT4=
EXTT5=
EXTT6=
EXTT7=
EXTT8=
EXTT9=
EXTT10=
EXTT11=
EXTT12=
EXTT13=
EXTT14=
EXTT15=
EXTT16=
PLAYORDER=
